<?xml version="1.0" encoding="UTF-8"?>
<svg width="210mm" height="297mm" version="1.1" viewBox="0 0 210 297" xmlns="http://www.w3.org/2000/svg" xmlns:cc="http://creativecommons.org/ns#" xmlns:dc="http://purl.org/dc/elements/1.1/" xmlns:rdf="http://www.w3.org/1999/02/22-rdf-syntax-ns#">
 <metadata>
  <rdf:RDF>
   <cc:Work rdf:about="">
    <dc:format>image/svg+xml</dc:format>
    <dc:type rdf:resource="http://purl.org/dc/dcmitype/StillImage"/>
    <dc:title/>
   </cc:Work>
  </rdf:RDF>
 </metadata>
 <g transform="matrix(1.0002 0 0 1.0028 -227.07 119.96)">
  <g>
   <rect x="409.02" y="-14.36" width="26.355" height="26.355" ry="3.5826" fill="#3bc6c6"/>
   <path transform="scale(.26458)" d="m1606.2-39.264c-5.3288-0.11767-26.17 5.3143-36.043 12.867-7.4245 5.6801 14.901 9.9386 22.172 13.314 4.4089 2.0472 7.7587 7.6945 3.8223 12.207-7.1425 8.1877-22.514 15.172-35.342 23.266-5.4113 3.4142-10.87 6.0785-15.092 8.3516v0.97656c0 7.5015 6.0395 13.541 13.541 13.541l34.135-0.03157 0.3316-0.25164s34.652-25.982 36.982-45.25c2.2499-18.606-38.188-20.052-43.309-24.451-5.0808-4.3648 19.047-13.059 19.047-13.059 1.5216-0.97834 1.2459-1.4475-0.2461-1.4805z" fill="#fffffd" stroke="#fff" stroke-width=".37795"/>
  </g>
 </g>
 <path d="m179.04 101.84 16.263-13.735 15.993 13.734" fill="none" stroke="#245c9d" stroke-linecap="round" stroke-linejoin="round" stroke-width="4.7857"/>
 <text transform="scale(.98207 1.0183)" x="-0.9560076" y="129.37927" fill="#245c9d" font-family="sans-serif" font-size="10.719px" letter-spacing="-.66146px" stroke-width=".26799" style="line-height:1.25" xml:space="preserve"><tspan x="-0.9560076" y="129.37927" fill="#245c9d" font-family="Montserrat" font-size="38.59px" font-weight="600" stroke-width=".26799">Domento</tspan></text>
</svg>
