<?xml version="1.0" encoding="UTF-8" standalone="no"?>
<svg
   xmlns:dc="http://purl.org/dc/elements/1.1/"
   xmlns:cc="http://creativecommons.org/ns#"
   xmlns:rdf="http://www.w3.org/1999/02/22-rdf-syntax-ns#"
   xmlns:svg="http://www.w3.org/2000/svg"
   xmlns="http://www.w3.org/2000/svg"
   xmlns:sodipodi="http://sodipodi.sourceforge.net/DTD/sodipodi-0.dtd"
   xmlns:inkscape="http://www.inkscape.org/namespaces/inkscape"
   inkscape:version="1.0 (4035a4fb49, 2020-05-01)"
   sodipodi:docname="Logo-Domento.svg"
   id="svg18"
   viewBox="0 0 214.3125 48.947914"
   version="1.1"
   height="185"
   width="810">
  <defs
     id="defs22" />
  <sodipodi:namedview
     inkscape:current-layer="svg18"
     inkscape:window-maximized="1"
     inkscape:window-y="-11"
     inkscape:window-x="-11"
     inkscape:cy="561.25984"
     inkscape:cx="396.85039"
     inkscape:zoom="0.8979798"
     units="px"
     showgrid="false"
     id="namedview20"
     inkscape:window-height="2054"
     inkscape:window-width="3840"
     inkscape:pageshadow="2"
     inkscape:pageopacity="0"
     guidetolerance="10"
     gridtolerance="10"
     objecttolerance="10"
     borderopacity="1"
     bordercolor="#666666"
     pagecolor="#ffffff" />
  <metadata
     id="metadata2">
    <rdf:RDF>
      <cc:Work
         rdf:about="">
        <dc:format>image/svg+xml</dc:format>
        <dc:type
           rdf:resource="http://purl.org/dc/dcmitype/StillImage" />
        <dc:title></dc:title>
      </cc:Work>
    </rdf:RDF>
  </metadata>
  <g
     transform="matrix(1.0028491,0,0,0.99983223,-1.3081114,-84.374929)"
     id="g854">
    <g
       transform="matrix(1.0002,0,0,1.0028,-227.07,119.96)"
       id="g10">
      <g
         id="g8">
        <rect
           x="409.01999"
           y="-14.36"
           width="26.355"
           height="26.355"
           ry="3.5826001"
           fill="#3bc6c6"
           id="rect4" />
        <path
           transform="scale(0.26458)"
           d="m 1606.2,-39.264 c -5.3288,-0.11767 -26.17,5.3143 -36.043,12.867 -7.4245,5.6801 14.901,9.9386 22.172,13.314 4.4089,2.0472 7.7587,7.6945 3.8223,12.207 -7.1425,8.1877 -22.514,15.172 -35.342,23.266 -5.4113,3.4142 -10.87,6.0785 -15.092,8.3516 v 0.97656 c 0,7.5015 6.0395,13.541 13.541,13.541 l 34.135,-0.03157 0.3316,-0.25164 c 0,0 34.652,-25.982 36.982,-45.25 2.2499,-18.606 -38.188,-20.052 -43.309,-24.451 -5.0808,-4.3648 19.047,-13.059 19.047,-13.059 1.5216,-0.97834 1.2459,-1.4475 -0.2461,-1.4805 z"
           fill="#fffffd"
           stroke="#ffffff"
           stroke-width="0.37795"
           id="path6" />
      </g>
    </g>
    <path
       d="m 179.04,101.84 16.263,-13.735 15.993,13.734"
       fill="none"
       stroke="#245c9d"
       stroke-linecap="round"
       stroke-linejoin="round"
       stroke-width="4.7857"
       id="path12" />
    <text
       transform="scale(0.98207,1.0183)"
       x="-0.9560076"
       y="129.37927"
       fill="#245c9d"
       font-family="sans-serif"
       font-size="10.719px"
       letter-spacing="-0.66146px"
       stroke-width="0.26799"
       style="line-height:1.25"
       xml:space="preserve"
       id="text16"><tspan
         x="-0.9560076"
         y="129.37927"
         fill="#245c9d"
         font-family="Montserrat"
         font-size="38.59px"
         font-weight="600"
         stroke-width="0.26799"
         id="tspan14">Domento</tspan></text>
  </g>
</svg>
